REM DIRINDEX 1\2,1\3,1\4,1\5\6,1\5\7,1\8
REM DIRNAME folder01,folder02,folder03,folder04,folder05,folder06,folder07,folder08
TITLE ""
FILE "165 【165】Unit10 (1861 get in on ～_1872 deal out).mp3" MP3
  TRACK 01 AUDIO
    TITLE "0:"
    INDEX 01 00:00:00
  TRACK 02 AUDIO
    TITLE "2:cjc115_6466"
    INDEX 01 00:00:07
  TRACK 03 AUDIO
    TITLE "0:"
    INDEX 01 00:01:38
  TRACK 04 AUDIO
    TITLE "3:cjc115_6467"
    INDEX 01 00:01:48
  TRACK 05 AUDIO
    TITLE "0:"
    INDEX 01 00:03:64
  TRACK 06 AUDIO
    TITLE "4:cjc115_6468"
    INDEX 01 00:03:70
  TRACK 07 AUDIO
    TITLE "0:"
    INDEX 01 00:07:23
  TRACK 08 AUDIO
    TITLE "2:cjc115_6469"
    INDEX 01 00:08:26
  TRACK 09 AUDIO
    TITLE "0:"
    INDEX 01 00:09:42
  TRACK 10 AUDIO
    TITLE "3:cjc115_6470"
    INDEX 01 00:09:55
  TRACK 11 AUDIO
    TITLE "0:"
    INDEX 01 00:12:71
  TRACK 12 AUDIO
    TITLE "4:cjc115_6471"
    INDEX 01 00:13:02
  TRACK 13 AUDIO
    TITLE "0:"
    INDEX 01 00:16:20
  TRACK 14 AUDIO
    TITLE "2:cjc115_6472"
    INDEX 01 00:17:25
  TRACK 15 AUDIO
    TITLE "0:"
    INDEX 01 00:18:54
  TRACK 16 AUDIO
    TITLE "3:cjc115_6473"
    INDEX 01 00:18:56
  TRACK 17 AUDIO
    TITLE "0:"
    INDEX 01 00:20:08
  TRACK 18 AUDIO
    TITLE "4:cjc115_6474"
    INDEX 01 00:20:12
  TRACK 19 AUDIO
    TITLE "0:"
    INDEX 01 00:23:63
  TRACK 20 AUDIO
    TITLE "2:cjc115_6475"
    INDEX 01 00:24:71
  TRACK 21 AUDIO
    TITLE "0:"
    INDEX 01 00:26:09
  TRACK 22 AUDIO
    TITLE "3:cjc115_6476"
    INDEX 01 00:26:17
  TRACK 23 AUDIO
    TITLE "0:"
    INDEX 01 00:30:20
  TRACK 24 AUDIO
    TITLE "4:cjc115_6477"
    INDEX 01 00:30:22
  TRACK 25 AUDIO
    TITLE "0:"
    INDEX 01 00:34:14
  TRACK 26 AUDIO
    TITLE "2:cjc115_6478"
    INDEX 01 00:35:17
  TRACK 27 AUDIO
    TITLE "0:"
    INDEX 01 00:36:29
  TRACK 28 AUDIO
    TITLE "3:cjc115_6479"
    INDEX 01 00:36:40
  TRACK 29 AUDIO
    TITLE "0:"
    INDEX 01 00:38:57
  TRACK 30 AUDIO
    TITLE "4:cjc115_6480"
    INDEX 01 00:38:61
  TRACK 31 AUDIO
    TITLE "0:"
    INDEX 01 00:42:57
  TRACK 32 AUDIO
    TITLE "2:cjc115_6481"
    INDEX 01 00:43:62
  TRACK 33 AUDIO
    TITLE "0:"
    INDEX 01 00:45:26
  TRACK 34 AUDIO
    TITLE "3:cjc115_6482"
    INDEX 01 00:45:30
  TRACK 35 AUDIO
    TITLE "0:"
    INDEX 01 00:48:12
  TRACK 36 AUDIO
    TITLE "4:cjc115_6483"
    INDEX 01 00:48:14
  TRACK 37 AUDIO
    TITLE "0:"
    INDEX 01 00:50:52
  TRACK 38 AUDIO
    TITLE "2:cjc115_6484"
    INDEX 01 00:51:58
  TRACK 39 AUDIO
    TITLE "0:"
    INDEX 01 00:53:29
  TRACK 40 AUDIO
    TITLE "3:cjc115_6485"
    INDEX 01 00:53:33
  TRACK 41 AUDIO
    TITLE "0:"
    INDEX 01 00:55:65
  TRACK 42 AUDIO
    TITLE "4:cjc115_6486"
    INDEX 01 00:55:67
  TRACK 43 AUDIO
    TITLE "0:"
    INDEX 01 00:59:02
  TRACK 44 AUDIO
    TITLE "2:cjc115_6487"
    INDEX 01 01:00:12
  TRACK 45 AUDIO
    TITLE "0:"
    INDEX 01 01:01:27
  TRACK 46 AUDIO
    TITLE "3:cjc115_6488"
    INDEX 01 01:01:33
  TRACK 47 AUDIO
    TITLE "0:"
    INDEX 01 01:04:15
  TRACK 48 AUDIO
    TITLE "4:cjc115_6489"
    INDEX 01 01:04:17
  TRACK 49 AUDIO
    TITLE "0:"
    INDEX 01 01:08:42
  TRACK 50 AUDIO
    TITLE "2:cjc115_6490"
    INDEX 01 01:09:48
  TRACK 51 AUDIO
    TITLE "0:"
    INDEX 01 01:10:65
  TRACK 52 AUDIO
    TITLE "3:cjc115_6491"
    INDEX 01 01:11:00
  TRACK 53 AUDIO
    TITLE "0:"
    INDEX 01 01:12:24
  TRACK 54 AUDIO
    TITLE "4:cjc115_6492"
    INDEX 01 01:12:30
  TRACK 55 AUDIO
    TITLE "0:"
    INDEX 01 01:14:68
  TRACK 56 AUDIO
    TITLE "2:cjc115_6493"
    INDEX 01 01:15:74
  TRACK 57 AUDIO
    TITLE "0:"
    INDEX 01 01:17:20
  TRACK 58 AUDIO
    TITLE "3:cjc115_6494"
    INDEX 01 01:17:26
  TRACK 59 AUDIO
    TITLE "0:"
    INDEX 01 01:18:54
  TRACK 60 AUDIO
    TITLE "4:cjc115_6495"
    INDEX 01 01:18:58
  TRACK 61 AUDIO
    TITLE "0:"
    INDEX 01 01:21:69
  TRACK 62 AUDIO
    TITLE "2:cjc115_6496"
    INDEX 01 01:22:74
  TRACK 63 AUDIO
    TITLE "0:"
    INDEX 01 01:24:20
  TRACK 64 AUDIO
    TITLE "3:cjc115_6497"
    INDEX 01 01:24:26
  TRACK 65 AUDIO
    TITLE "0:"
    INDEX 01 01:25:41
  TRACK 66 AUDIO
    TITLE "4:cjc115_6498"
    INDEX 01 01:25:51
  TRACK 67 AUDIO
    TITLE "0:"
    INDEX 01 01:29:03
  TRACK 68 AUDIO
    TITLE "2:cjc115_6499"
    INDEX 01 01:30:07
  TRACK 69 AUDIO
    TITLE "0:"
    INDEX 01 01:31:30
  TRACK 70 AUDIO
    TITLE "3:cjc115_6500"
    INDEX 01 01:31:36
  TRACK 71 AUDIO
    TITLE "0:"
    INDEX 01 01:32:74
  TRACK 72 AUDIO
    TITLE "4:cjc115_6501"
    INDEX 01 01:33:05
  TRACK 73 AUDIO
    TITLE "0:"
    INDEX 01 01:37:32
